<svg width="3740" height="2296" viewBox="0 0 3740 2296" fill="none" xmlns="http://www.w3.org/2000/svg">
<g clip-path="url(#clip0_211_193454)">
<path d="M1543.28 1921.63C1507.19 1921.63 1486.71 1940.83 1486.71 1975.39C1486.71 2007.65 1504.37 2018.91 1529.46 2028.9L1551.73 2037.86C1564.79 2042.98 1567.35 2050.66 1567.35 2061.92C1567.35 2076 1558.39 2084.45 1545.33 2084.45C1529.97 2084.45 1521.01 2078.56 1521.01 2055.78V2050.91H1484.15V2056.54C1484.15 2096.48 1504.11 2111.58 1542.26 2111.58C1583.73 2111.58 1605.75 2092.9 1605.75 2055.52C1605.75 2029.92 1594.99 2017.63 1570.67 2007.14L1542.51 1994.85C1528.69 1988.96 1523.57 1983.33 1523.57 1970.02C1523.57 1956.45 1530.48 1948.77 1544.56 1948.77C1558.13 1948.77 1564.53 1957.47 1564.53 1975.9H1599.86V1971.55C1599.86 1938.27 1579.38 1921.63 1543.28 1921.63ZM1762.06 1925.22L1713.67 2108H1752.07L1760.52 2069.34H1809.16L1817.61 2108H1856.01L1807.62 1925.22H1762.06ZM1785.1 1956.96L1802.76 2039.14H1766.92L1784.58 1956.96H1785.1ZM1971.13 1925.22V2108H2073.27V2077.79H2007.99V1925.22H1971.13ZM2192.04 1925.22V2108H2296.74V2077.79H2228.9V2028.64H2290.34V1998.43H2228.9V1955.42H2294.18V1925.22H2192.04Z" fill="#F4E623"/>
<path d="M1514.67 2232.42L1514.6 2237.98H1453.99V2232.42H1481.56V2226.52C1475.02 2226.12 1469.88 2224.75 1466.16 2222.4C1462.45 2220.04 1460.6 2217.19 1460.6 2213.86C1460.6 2210.44 1462.91 2207.47 1467.53 2204.96C1472.15 2202.43 1477.73 2201.17 1484.3 2201.17C1490.88 2201.17 1496.48 2202.43 1501.1 2204.96C1505.74 2207.47 1508.06 2210.44 1508.06 2213.86C1508.06 2217.05 1506.14 2219.85 1502.3 2222.26C1498.45 2224.65 1493.37 2226.07 1487.04 2226.52V2232.42H1514.67ZM1484.37 2221.07C1489.34 2221.07 1493.47 2220.38 1496.78 2218.99C1500.08 2217.61 1501.73 2215.9 1501.73 2213.86C1501.73 2211.84 1500.07 2210.16 1496.74 2208.8C1493.44 2207.41 1489.31 2206.72 1484.37 2206.72C1479.42 2206.72 1475.29 2207.41 1471.96 2208.8C1468.65 2210.16 1467 2211.84 1467 2213.86C1467 2215.9 1468.65 2217.61 1471.96 2218.99C1475.26 2220.38 1479.4 2221.07 1484.37 2221.07ZM1507.47 2262.3H1461.83V2240.37H1467.46V2256.61H1507.47V2262.3ZM1588.57 2234H1577.11V2263.96H1571.66V2198.39H1577.11V2228.48H1588.57V2234ZM1529.75 2256.54V2225.46H1554.08V2211.47H1529.68V2205.7H1559.77V2231.05H1535.45V2250.63C1544.82 2250.38 1554.42 2249.02 1564.24 2246.55V2252C1554.7 2254.51 1543.2 2256.02 1529.75 2256.54ZM1659.37 2247.05H1653.74V2198.39H1659.37V2247.05ZM1639.54 2218.96C1639.54 2224 1637.81 2228.23 1634.34 2231.65C1630.89 2235.05 1626.34 2236.75 1620.7 2236.75C1614.88 2236.75 1610.28 2235.12 1606.88 2231.86C1603.5 2228.6 1601.82 2224.36 1601.82 2219.13C1601.82 2213.95 1603.61 2209.7 1607.2 2206.37C1610.78 2203.02 1615.28 2201.34 1620.7 2201.34C1626.27 2201.34 1630.81 2203.04 1634.3 2206.44C1637.79 2209.84 1639.54 2214.01 1639.54 2218.96ZM1633.95 2218.96C1633.95 2215.65 1632.66 2212.82 1630.08 2210.45C1627.5 2208.06 1624.4 2206.86 1620.77 2206.86C1617.11 2206.86 1613.98 2208.05 1611.38 2210.41C1608.8 2212.78 1607.51 2215.63 1607.51 2218.96C1607.51 2222.29 1608.8 2225.13 1611.38 2227.5C1613.98 2229.87 1617.13 2231.05 1620.84 2231.05C1624.45 2231.05 1627.53 2229.87 1630.08 2227.5C1632.66 2225.13 1633.95 2222.29 1633.95 2218.96ZM1659.37 2262.3H1611.56V2240.37H1617.14V2256.61H1659.37V2262.3ZM1725.56 2214.49C1727.69 2218.31 1731.51 2222.17 1737.02 2226.06C1742.55 2229.93 1748.02 2232.5 1753.44 2233.79C1751.23 2235.81 1749.77 2237.73 1749.04 2239.56C1744.29 2237.73 1739.41 2235.02 1734.42 2231.44C1729.45 2227.85 1725.65 2224.3 1723.03 2220.79C1717.07 2229.79 1708.92 2236.25 1698.56 2240.19C1697.41 2238.18 1696.1 2236.62 1694.62 2235.52C1702.75 2232.7 1709.14 2228.61 1713.78 2223.25C1718.42 2217.86 1720.77 2211.98 1720.81 2205.63L1728.65 2207C1727.64 2208.55 1726.61 2211.05 1725.56 2214.49ZM1755.72 2255.27H1691.95V2249.58H1755.72V2255.27ZM1828.6 2257.77H1765.18V2252.07H1793.27V2238.61H1773.68V2204.51H1818.89V2210.27H1779.41V2218.39H1816.64V2224.09H1779.41V2232.95H1819.6V2238.61H1798.71V2252.07H1828.6V2257.77ZM1893.42 2264.03V2233.72H1879.08V2228.1H1893.42V2198.46H1898.91V2264.03H1893.42ZM1872.68 2229.4C1872.68 2235.49 1871.07 2240.68 1867.86 2244.97C1864.68 2249.24 1860.88 2251.37 1856.47 2251.37C1851.95 2251.37 1848.12 2249.26 1844.98 2245.04C1841.84 2240.8 1840.27 2235.59 1840.27 2229.4C1840.27 2222.91 1841.79 2217.64 1844.84 2213.61C1847.91 2209.56 1851.79 2207.53 1856.47 2207.53C1860.88 2207.53 1864.68 2209.66 1867.86 2213.93C1871.07 2218.2 1872.68 2223.35 1872.68 2229.4ZM1867.27 2229.47C1867.27 2224.97 1866.21 2221.14 1864.1 2217.97C1861.99 2214.79 1859.45 2213.19 1856.47 2213.19C1853.52 2213.19 1850.96 2214.79 1848.81 2217.97C1846.68 2221.14 1845.61 2224.97 1845.61 2229.47C1845.61 2233.97 1846.68 2237.81 1848.81 2241C1850.96 2244.16 1853.52 2245.75 1856.47 2245.75C1859.45 2245.75 1861.99 2244.16 1864.1 2241C1866.21 2237.84 1867.27 2233.99 1867.27 2229.47ZM1987.35 2236.61V2198.39H1992.7V2236.61H1987.35ZM1970.79 2203.21V2232.35H1938.7V2203.21H1970.79ZM1944.14 2208.97V2226.59H1965.31V2208.97H1944.14ZM1978.77 2243H1957.4V2238.05H1978.77V2243ZM1971 2250.49C1972.97 2252.58 1976.42 2254.48 1981.34 2256.19C1986.26 2257.9 1990.74 2258.81 1994.77 2258.93C1993.01 2260.48 1991.78 2262.15 1991.08 2263.96C1982.05 2262.74 1974.33 2259.79 1967.91 2255.1C1961.68 2259.76 1953.78 2262.74 1944.21 2264.03C1944.07 2262.97 1943.09 2261.34 1941.26 2259.14C1951.32 2258.39 1959.14 2255.51 1964.75 2250.49H1943.79V2245.61H1992.31V2250.49H1971ZM2080.93 2247.05V2224.37H2066.66V2218.75H2080.93V2198.46H2086.38V2247.05H2080.93ZM2062.58 2238.79C2056.3 2234.54 2050.87 2228.92 2046.3 2221.91C2042.95 2228.68 2037.62 2234.61 2030.3 2239.7C2028.95 2237.94 2027.6 2236.55 2026.26 2235.52C2036.25 2229.45 2042.15 2221.1 2043.98 2210.48H2028.51V2205.07H2065.53V2210.48H2049.75C2049.53 2211.84 2049.3 2213.02 2049.04 2214C2050.07 2217.14 2052.31 2220.67 2055.76 2224.58C2059.23 2228.47 2063.01 2231.74 2067.11 2234.39C2065.07 2235.59 2063.56 2237.05 2062.58 2238.79ZM2086.48 2262.3H2038.67V2240.37H2044.26V2256.61H2086.48V2262.3ZM2160.34 2228.62H2132.78V2236.89H2127.3V2228.62H2099.73V2223.07H2145.37C2146.12 2216.91 2146.57 2212.35 2146.74 2209.39H2106.55V2203.63H2153.31C2153.05 2207.24 2152.3 2213.72 2151.06 2223.07H2160.34V2228.62ZM2147.16 2263.39V2245.61H2106.62V2239.98H2152.5V2263.39H2147.16ZM2253.15 2263.96H2247.66V2233.3H2238.73V2260.02H2233.25V2201.98H2238.73V2227.75H2247.66V2198.39H2253.15V2263.96ZM2225.48 2208.59V2253.83H2196.97V2208.59H2225.48ZM2202.45 2214.35V2248.07H2220V2214.35H2202.45ZM2328.1 2220.33H2316.64V2236.61H2311.19V2198.39H2316.64V2214.81H2328.1V2220.33ZM2303.1 2231.05C2300.64 2232.64 2298.94 2234.13 2298 2235.52C2291.02 2230.12 2286.44 2225.24 2284.26 2220.86C2281.26 2226.18 2277.03 2231.33 2271.57 2236.32C2269.67 2234.31 2268.04 2232.82 2266.68 2231.86C2275.8 2224.99 2280.74 2217.41 2281.51 2209.11H2268.68V2203.28H2301.87V2209.11H2287.77L2287.21 2213.19C2287.21 2214.5 2288.68 2217.09 2291.6 2220.96C2294.56 2224.83 2298.39 2228.19 2303.1 2231.05ZM2318.08 2250.88C2318.08 2254.75 2316.1 2257.86 2312.14 2260.23C2308.18 2262.62 2303.01 2263.82 2296.63 2263.82C2290.09 2263.82 2284.83 2262.69 2280.85 2260.44C2276.86 2258.19 2274.87 2255.03 2274.87 2250.95C2274.87 2247.29 2276.91 2244.19 2280.99 2241.63C2285.07 2239.05 2290.28 2237.77 2296.63 2237.77C2302.94 2237.77 2308.08 2238.98 2312.07 2241.42C2316.07 2243.86 2318.08 2247.01 2318.08 2250.88ZM2311.68 2251.16C2311.68 2248.93 2310.3 2247.12 2307.53 2245.71C2304.76 2244.3 2301.16 2243.6 2296.7 2243.6C2292.04 2243.6 2288.3 2244.28 2285.49 2245.64C2282.7 2247 2281.3 2248.79 2281.3 2251.02C2281.3 2253.15 2282.72 2254.92 2285.56 2256.33C2288.42 2257.73 2292.13 2258.44 2296.7 2258.44C2301.18 2258.44 2304.79 2257.76 2307.53 2256.4C2310.3 2255.02 2311.68 2253.27 2311.68 2251.16Z" fill="black"/>
</g>
<defs>
<clipPath id="clip0_211_193454">
<rect width="3740" height="2296" fill="white"/>
</clipPath>
</defs>
</svg>
